<svg width="25" height="25" viewBox="0 0 25 25" fill="none" xmlns="http://www.w3.org/2000/svg">
<g clip-path="url(#clip0_2006_1594)">
<path d="M6.92055 5.59337C5.65281 6.6502 4.68997 8.0675 4.16844 9.68142C3.88761 10.558 3.73516 11.492 3.73516 12.4587V22.9532C3.73516 23.8544 3.02106 24.5835 2.13845 24.5835C1.25585 24.5835 0.541748 23.8544 0.541748 22.9532V12.4587C0.541748 9.2636 1.75332 6.35527 3.72714 4.19246C5.08313 2.70962 6.79217 1.57086 8.71785 0.931848C9.7529 0.587763 10.82 1.36605 10.82 2.47203C10.82 3.17659 10.3707 3.79922 9.71278 4.02041C8.68575 4.37269 7.73896 4.9052 6.92055 5.59337Z" fill="white"/>
<path d="M24.2921 12.3764C24.3322 19.0123 19.0446 24.5095 12.5374 24.5832C12.4893 24.5832 12.4411 24.5832 12.393 24.5832C9.36006 24.575 6.91284 22.0517 6.91284 18.9631V12.5402C6.91284 12.5157 6.91284 12.4829 6.91284 12.4583C6.91284 9.23048 9.60077 6.62527 12.8102 6.85466C15.5302 7.05128 17.7287 9.3124 17.9052 12.0897C18.0256 13.9985 17.1992 15.7271 15.8592 16.8249C14.8322 17.6687 13.2916 16.8904 13.2916 15.5387C13.2916 15.0471 13.5083 14.5884 13.8774 14.277C14.415 13.8265 14.7439 13.1383 14.7199 12.3764C14.6797 11.1639 13.7089 10.148 12.5214 10.0907C11.1975 10.0251 10.0982 11.1066 10.0982 12.4501C10.0982 12.4747 10.0982 12.5075 10.0982 12.532V18.7747C10.0982 20.192 11.2376 21.3472 12.6257 21.3144C12.6498 21.3144 12.6818 21.3144 12.7139 21.3144C17.135 21.1587 20.7857 17.5704 21.0826 13.0646C21.3634 8.87001 18.7638 5.24074 15.105 4.02006C14.4551 3.80705 14.0058 3.20081 14.0058 2.49626V2.4471C14.0058 1.3657 15.0328 0.579217 16.0438 0.906917C20.8098 2.47168 24.26 7.01031 24.2921 12.3764Z" fill="white"/>
</g>
<defs>
<clipPath id="clip0_2006_1594">
<rect width="23.75" height="23.75" fill="white" transform="translate(0.541748 0.833252)"/>
</clipPath>
</defs>
</svg>
